<svg width="95" height="27" viewBox="0 0 95 27" fill="none" xmlns="http://www.w3.org/2000/svg">
<g clip-path="url(#clip0_2150_466)">
<path d="M0 0H4.99508V5.39551H0V0ZM0 5.39551H4.99508V10.791H0V5.39551ZM0 10.8022H4.99508V16.1978H0V10.8022ZM0 16.1978H4.99508V21.5933H0V16.1978ZM0 21.6045H4.99508V27H0V21.6045ZM4.99508 0H9.99016V5.39551H4.99508V0ZM4.99508 10.8022H9.99016V16.1978H4.99508V10.8022ZM4.99508 21.6045H9.99016V27H4.99508V21.6045ZM10.0005 0H14.9956V5.39551H10.0005V0ZM10.0005 5.39551H14.9956V10.791H10.0005V5.39551ZM10.0005 16.1978H14.9956V21.5933H10.0005V16.1978ZM10.0005 21.6045H14.9956V27H10.0005V21.6045Z" fill="#00FFA3"/>
<path d="M20.001 0H24.9961V5.39551H20.001V0ZM20.001 5.39551H24.9961V10.791H20.001V5.39551ZM20.001 10.8022H24.9961V16.1978H20.001V10.8022ZM20.001 16.1978H24.9961V21.5933H20.001V16.1978ZM20.001 21.6045H24.9961V27H20.001V21.6045ZM24.9961 21.6045H29.9911V27H24.9961V21.6045ZM30.0015 0H34.9966V5.39551H30.0015V0ZM30.0015 5.39551H34.9966V10.791H30.0015V5.39551ZM30.0015 10.8022H34.9966V16.1978H30.0015V10.8022ZM30.0015 16.1978H34.9966V21.5933H30.0015V16.1978ZM30.0015 21.6045H34.9966V27H30.0015V21.6045Z" fill="#00FFA3"/>
<path d="M40.0022 0H44.9973V5.39551H40.0022V0ZM40.0022 5.39551H44.9973V10.791H40.0022V5.39551ZM40.0022 10.8022H44.9973V16.1978H40.0022V10.8022ZM40.0022 16.1978H44.9973V21.5933H40.0022V16.1978ZM40.0022 21.6045H44.9973V27H40.0022V21.6045ZM44.9973 0H49.9924V5.39551H44.9973V0ZM44.9973 10.8022H49.9924V16.1978H44.9973V10.8022ZM44.9973 21.6045H49.9924V27H44.9973V21.6045ZM50.0027 0H54.9978V5.39551H50.0027V0ZM50.0027 5.39551H54.9978V10.791H50.0027V5.39551ZM50.0027 16.1978H54.9978V21.5933H50.0027V16.1978ZM50.0027 21.6045H54.9978V27H50.0027V21.6045Z" fill="#00FFA3"/>
<path d="M60.0032 0H64.9983V5.39551H60.0032V0ZM60.0032 5.39551H64.9983V10.791H60.0032V5.39551ZM60.0032 10.8022H64.9983V16.1978H60.0032V10.8022ZM60.0032 21.6045H64.9983V27H60.0032V21.6045ZM64.9983 0H69.9933V5.39551H64.9983V0ZM64.9983 10.8022H69.9933V16.1978H64.9983V10.8022ZM64.9983 21.6045H69.9933V27H64.9983V21.6045ZM70.0037 0H74.9988V5.39551H70.0037V0ZM70.0037 10.8022H74.9988V16.1978H70.0037V10.8022ZM70.0037 16.1978H74.9988V21.5933H70.0037V16.1978ZM70.0037 21.6045H74.9988V27H70.0037V21.6045Z" fill="#00FFA3"/>
<path d="M80.0044 0H84.9995V5.39551H80.0044V0ZM80.0044 5.39551H84.9995V10.791H80.0044V5.39551ZM80.0044 10.8022H84.9995V16.1978H80.0044V10.8022ZM84.9995 16.1978H89.9946V21.5933H84.9995V16.1978ZM84.9995 21.6045H89.9946V27H84.9995V21.6045ZM90.0049 0H95V5.39551H90.0049V0ZM90.0049 5.39551H95V10.791H90.0049V5.39551ZM90.0049 10.8022H95V16.1978H90.0049V10.8022Z" fill="#00FFA3"/>
</g>
<defs>
<clipPath id="clip0_2150_466">
<rect width="95" height="27" fill="white"/>
</clipPath>
</defs>
</svg>
