<svg xmlns="http://www.w3.org/2000/svg" xmlns:xlink="http://www.w3.org/1999/xlink" viewBox="0 0 474.50819 55.72803">
  <defs>
    <style>
      .chainaudits-b267feee-6174-4e32-a3f0-ff4725fe4c37 {
        fill: url(#chainaudits-f5a6fe62-67d5-4813-ad1f-d1863e18bd6a);
      }

      .chainaudits-a83f3f0e-b537-45b3-8993-9cdfad043bbc {
        fill: url(#chainaudits-f6c9e52e-0f86-441a-a70b-fcb57ecd37eb);
      }

      .chainaudits-e25d9870-519c-44fa-9046-06c9becc2682 {
        fill: url(#chainaudits-eeabacc7-f4f6-47c8-8a92-18c8df6aecd0);
      }

      .chainaudits-b9ee880e-3e86-4d4d-9e03-ec2c6bea66cf {
        fill: url(#chainaudits-ed7286ab-0fb6-4a61-8164-dcf76f4fa9b5);
      }

      .chainaudits-eaeab6a9-cdc8-47fb-8ef5-6287bad1fae5 {
        fill: url(#chainaudits-b3913db6-e09a-438d-80ca-609cd3a1082f);
      }

      .chainaudits-b7dee81a-72c3-495d-a135-5aae7358b97e {
        fill: url(#chainaudits-e9f3576e-4683-4d87-abaa-379ef29b3fef);
      }

      .chainaudits-b228ae01-2eb3-4a87-81cd-e032df825311 {
        fill: url(#chainaudits-ad997d8e-10f7-40b2-8d35-ed25b497fc0c);
      }

      .chainaudits-abbe3f02-48d5-4a1c-8502-8d3dfbcdbd93 {
        fill: url(#chainaudits-bbb1d654-b89d-43d5-946f-1c1c990b901f);
      }

      .chainaudits-b0a8201f-5d90-4fd4-8cfb-588aaeb5600f {
        fill: url(#chainaudits-a5ac2742-694c-42bc-8171-b72297d05aa1);
      }

      .chainaudits-f0f26b41-3331-41b1-ad1c-ac5694b1972d {
        fill: url(#chainaudits-b47a6f0a-552a-4554-be05-d1f94902f830);
      }

      .chainaudits-e34e2328-4007-4f09-9179-2a9aefa520b7 {
        fill: url(#chainaudits-fb0e1fc5-0867-49e6-9245-5c5e5b67651b);
      }

      .chainaudits-adaee07e-aa8e-4fa7-9444-88a7839dad2a {
        fill: url(#chainaudits-b84d3d89-2844-463b-a86d-d80853cecd45);
      }
    </style>
    <linearGradient id="chainaudits-f5a6fe62-67d5-4813-ad1f-d1863e18bd6a" data-name="Unbenannter Verlauf 54" x1="98.25018" y1="-0.76887" x2="98.25018" y2="54.51743" gradientUnits="userSpaceOnUse">
      <stop offset="0" stop-color="#f18419"/>
      <stop offset="1" stop-color="#eae222"/>
    </linearGradient>
    <linearGradient id="chainaudits-f6c9e52e-0f86-441a-a70b-fcb57ecd37eb" x1="142.81806" y1="-0.76887" x2="142.81806" y2="54.51743" xlink:href="#chainaudits-f5a6fe62-67d5-4813-ad1f-d1863e18bd6a"/>
    <linearGradient id="chainaudits-eeabacc7-f4f6-47c8-8a92-18c8df6aecd0" x1="182.38104" y1="-0.76887" x2="182.38104" y2="54.51743" xlink:href="#chainaudits-f5a6fe62-67d5-4813-ad1f-d1863e18bd6a"/>
    <linearGradient id="chainaudits-ed7286ab-0fb6-4a61-8164-dcf76f4fa9b5" x1="211.50433" y1="-0.76887" x2="211.50433" y2="54.51743" xlink:href="#chainaudits-f5a6fe62-67d5-4813-ad1f-d1863e18bd6a"/>
    <linearGradient id="chainaudits-b3913db6-e09a-438d-80ca-609cd3a1082f" x1="241.52802" y1="-0.76887" x2="241.52802" y2="54.51743" xlink:href="#chainaudits-f5a6fe62-67d5-4813-ad1f-d1863e18bd6a"/>
    <linearGradient id="chainaudits-e9f3576e-4683-4d87-abaa-379ef29b3fef" x1="292.20643" y1="-0.76887" x2="292.20643" y2="54.51743" xlink:href="#chainaudits-f5a6fe62-67d5-4813-ad1f-d1863e18bd6a"/>
    <linearGradient id="chainaudits-ad997d8e-10f7-40b2-8d35-ed25b497fc0c" x1="337.56581" y1="-0.76887" x2="337.56581" y2="54.51743" xlink:href="#chainaudits-f5a6fe62-67d5-4813-ad1f-d1863e18bd6a"/>
    <linearGradient id="chainaudits-bbb1d654-b89d-43d5-946f-1c1c990b901f" x1="378.75038" y1="-0.76887" x2="378.75038" y2="54.52703" xlink:href="#chainaudits-f5a6fe62-67d5-4813-ad1f-d1863e18bd6a"/>
    <linearGradient id="chainaudits-a5ac2742-694c-42bc-8171-b72297d05aa1" x1="410.21327" y1="-0.76887" x2="410.21327" y2="54.51743" xlink:href="#chainaudits-f5a6fe62-67d5-4813-ad1f-d1863e18bd6a"/>
    <linearGradient id="chainaudits-b47a6f0a-552a-4554-be05-d1f94902f830" x1="430.51698" y1="-0.76887" x2="430.51698" y2="54.51743" xlink:href="#chainaudits-f5a6fe62-67d5-4813-ad1f-d1863e18bd6a"/>
    <linearGradient id="chainaudits-fb0e1fc5-0867-49e6-9245-5c5e5b67651b" x1="461.00819" y1="-0.76887" x2="461.00819" y2="54.51743" xlink:href="#chainaudits-f5a6fe62-67d5-4813-ad1f-d1863e18bd6a"/>
    <linearGradient id="chainaudits-b84d3d89-2844-463b-a86d-d80853cecd45" x1="33.3503" y1="-0.74046" x2="33.3503" y2="54.41441" xlink:href="#chainaudits-f5a6fe62-67d5-4813-ad1f-d1863e18bd6a"/>
  </defs>
  <g id="chainaudits-f50480ad-c974-40cd-b272-2f4065c7412a" data-name="Ebene 2">
    <g id="chainaudits-b567af3b-b079-462d-9f02-eaf25dc78d49" data-name="Ebene 2">
      <g id="chainaudits-b356bd4a-6cc9-47a3-8bb7-d6bb79688efc" data-name="logo_text_colored">
        <g>
          <path class="chainaudits-b267feee-6174-4e32-a3f0-ff4725fe4c37" d="M111.35419,16.7041a11.03792,11.03792,0,0,0-4.06787-3.09619,13.54618,13.54618,0,0,0-5.58008-1.07959,13.95735,13.95735,0,0,0-10.54785,4.644,15.92128,15.92128,0,0,0-3.09619,5.21973A18.76958,18.76958,0,0,0,86.946,28.94434a18.67673,18.67673,0,0,0,1.11622,6.58789,16.36524,16.36524,0,0,0,3.06,5.18408A13.85573,13.85573,0,0,0,95.694,44.13623a13.21641,13.21641,0,0,0,5.65235,1.22412,12.65706,12.65706,0,0,0,6.11962-1.44043,12.17878,12.17878,0,0,0,4.39209-4.03174l9.35987,6.98389a19.49387,19.49387,0,0,1-8.208,6.69629A25.39972,25.39972,0,0,1,102.78632,55.728,31.40976,31.40976,0,0,1,91.7702,53.856a25.19474,25.19474,0,0,1-8.71191-5.36377,24.31424,24.31424,0,0,1-5.72412-8.46,28.78634,28.78634,0,0,1-2.05176-11.08789A28.79053,28.79053,0,0,1,77.33417,17.856a24.32776,24.32776,0,0,1,5.72412-8.46A25.22385,25.22385,0,0,1,91.7702,4.03223a31.40976,31.40976,0,0,1,11.01612-1.87207,27.0686,27.0686,0,0,1,4.5.396,24.37083,24.37083,0,0,1,4.60791,1.25977,20.58788,20.58788,0,0,1,4.356,2.3042A17.38934,17.38934,0,0,1,119.99432,9.648Z"/>
          <path class="chainaudits-a83f3f0e-b537-45b3-8993-9cdfad043bbc" d="M136.7702,0V24.19189h.14356a6.507,6.507,0,0,1,1.22412-2.01562,9.596,9.596,0,0,1,2.08789-1.80029,11.39314,11.39314,0,0,1,2.88037-1.2959,12.3437,12.3437,0,0,1,3.59961-.50391,14.89122,14.89122,0,0,1,6.624,1.25977,9.58893,9.58893,0,0,1,3.92432,3.49218,14.13388,14.13388,0,0,1,1.90772,5.25586,39.98369,39.98369,0,0,1,.50439,6.55225v19.2959H148.86591V37.2959q0-1.51172-.10791-3.13184a9.87738,9.87738,0,0,0-.648-2.98779,4.64622,4.64622,0,0,0-4.85987-3.09619,6.66723,6.66723,0,0,0-3.38427.75586,5.15858,5.15858,0,0,0-1.98,2.01611,8.23956,8.23956,0,0,0-.89991,2.84424,24.50039,24.50039,0,0,0-.21582,3.312V54.43213H125.96991V0Z"/>
          <path class="chainaudits-e25d9870-519c-44fa-9046-06c9becc2682" d="M189.257,50.04h-.144a10.1599,10.1599,0,0,1-4.7876,4.03223,16.47486,16.47486,0,0,1-6.30029,1.22363,16.25359,16.25359,0,0,1-4.71582-.6836,11.88012,11.88012,0,0,1-3.9961-2.05224,9.8922,9.8922,0,0,1-2.73584-3.38379,10.32205,10.32205,0,0,1-1.0083-4.68018,10.72329,10.72329,0,0,1,1.11621-5.11181,9.98294,9.98294,0,0,1,3.02393-3.45606,15.01966,15.01966,0,0,1,4.356-2.124A31.8503,31.8503,0,0,1,179.1413,32.688a48.72321,48.72321,0,0,1,5.25586-.43164q2.62719-.07106,4.85986-.07227a5.61767,5.61767,0,0,0-2.05176-4.57178,7.40463,7.40463,0,0,0-4.86035-1.69238,10.57335,10.57335,0,0,0-4.85986,1.11621,13.27454,13.27454,0,0,0-3.92383,3.06006l-5.76025-5.9043A19.81848,19.81848,0,0,1,174.85712,19.98a25.21537,25.21537,0,0,1,8.352-1.40381,21.83957,21.83957,0,0,1,7.812,1.188,11.36661,11.36661,0,0,1,4.896,3.49219,13.46389,13.46389,0,0,1,2.55615,5.65185,37.16312,37.16312,0,0,1,.71973,7.73975V54.43213h-9.936ZM186.593,39.09619q-1.22462,0-3.06006.10791a15.57436,15.57436,0,0,0-3.52783.61182,7.86291,7.86291,0,0,0-2.87989,1.5122,3.4858,3.4858,0,0,0-1.188,2.80811,3.0874,3.0874,0,0,0,1.65576,2.87988,6.92189,6.92189,0,0,0,3.45605.936,10.84065,10.84065,0,0,0,3.06006-.43213A9.11522,9.11522,0,0,0,186.737,46.2959a5.91537,5.91537,0,0,0,1.83594-2.01563,5.80751,5.80751,0,0,0,.68408-2.88037V39.09619Z"/>
          <path class="chainaudits-b9ee880e-3e86-4d4d-9e03-ec2c6bea66cf" d="M205.24042,8.42432a6.03462,6.03462,0,0,1,1.83594-4.42823,6.25776,6.25776,0,0,1,8.856,0,6.03466,6.03466,0,0,1,1.83594,4.42823,6.03356,6.03356,0,0,1-1.83594,4.42773,6.25773,6.25773,0,0,1-8.856,0A6.03352,6.03352,0,0,1,205.24042,8.42432Zm.86377,11.01562H216.904V54.43213h-10.7998Z"/>
          <path class="chainaudits-eaeab6a9-cdc8-47fb-8ef5-6287bad1fae5" d="M224.67987,19.43994H235.048v4.752h.144a8.73431,8.73431,0,0,1,1.43994-2.01562A10.48425,10.48425,0,0,1,238.864,20.376a12.78542,12.78542,0,0,1,2.95215-1.2959,12.3437,12.3437,0,0,1,3.59961-.50391,14.89122,14.89122,0,0,1,6.624,1.25977,9.58893,9.58893,0,0,1,3.92432,3.49218,14.13388,14.13388,0,0,1,1.90772,5.25586,39.98259,39.98259,0,0,1,.50439,6.55225v19.2959H247.57587V37.2959q0-1.51172-.10791-3.13184a9.87738,9.87738,0,0,0-.648-2.98779,4.64622,4.64622,0,0,0-4.85987-3.09619,6.66726,6.66726,0,0,0-3.38427.75586,5.15858,5.15858,0,0,0-1.98,2.01611,8.23956,8.23956,0,0,0-.89991,2.84424,24.50039,24.50039,0,0,0-.21582,3.312V54.43213H224.67987Z"/>
        </g>
        <g>
          <path class="chainaudits-b7dee81a-72c3-495d-a135-5aae7358b97e" d="M289.39833,3.45605H295.662l21.8164,50.97608H309.414L304.30262,41.832H280.038l-5.04,12.6001h-8.06347Zm12.38378,32.32813-9.5039-23.3999h-.14356l-9.64843,23.3999Z"/>
          <path class="chainaudits-b228ae01-2eb3-4a87-81cd-e032df825311" d="M352.68543,54.43213h-6.47949V49.17627h-.14453a9.54128,9.54128,0,0,1-4.24805,4.42773A14.06776,14.06776,0,0,1,334.83,55.2959a14.71029,14.71029,0,0,1-4.752-.75586,10.68636,10.68636,0,0,1-3.9248-2.33984,11.262,11.262,0,0,1-2.69922-4.06788,15.53951,15.53951,0,0,1-1.00781-5.86816v-21.96h6.47949V40.46436a11.372,11.372,0,0,0,.64844,4.06787,7.42119,7.42119,0,0,0,1.72754,2.73584,6.47663,6.47663,0,0,0,2.48437,1.5122,9.14072,9.14072,0,0,0,2.916.46778,10.58278,10.58278,0,0,0,3.74414-.648,7.81009,7.81009,0,0,0,3.02343-2.05176,9.67362,9.67362,0,0,0,2.01563-3.56445,16.22471,16.22471,0,0,0,.7207-5.11182V20.3042h6.47949Z"/>
          <path class="chainaudits-abbe3f02-48d5-4a1c-8502-8d3dfbcdbd93" d="M396.67811,54.43213h-6.47949v-4.896h-.14453a12.33891,12.33891,0,0,1-5.14746,4.248,15.9061,15.9061,0,0,1-6.73243,1.51172,18.08277,18.08277,0,0,1-7.16406-1.36768,15.81469,15.81469,0,0,1-5.47168-3.81592,17.23377,17.23377,0,0,1-3.49219-5.688,19.79794,19.79794,0,0,1-1.22363-7.05616,20.09807,20.09807,0,0,1,1.22363-7.09179,16.77075,16.77075,0,0,1,3.49219-5.68848,16.0848,16.0848,0,0,1,5.47168-3.77978,18.08285,18.08285,0,0,1,7.16406-1.36817,15.83421,15.83421,0,0,1,6.91211,1.54834,11.817,11.817,0,0,1,4.96778,4.21192h.14453V0h6.47949ZM378.9662,49.24805a11.7058,11.7058,0,0,0,4.68066-.89991,10.3213,10.3213,0,0,0,3.52734-2.44824,10.80187,10.80187,0,0,0,2.23243-3.74365,14.86951,14.86951,0,0,0,0-9.57617,10.83112,10.83112,0,0,0-2.23243-3.74414,10.36087,10.36087,0,0,0-3.52734-2.44776,12.62021,12.62021,0,0,0-9.36035,0,10.34607,10.34607,0,0,0-3.52832,2.44776,10.78443,10.78443,0,0,0-2.23145,3.74414,14.86951,14.86951,0,0,0,0,9.57617,10.75543,10.75543,0,0,0,2.23145,3.74365,10.30663,10.30663,0,0,0,3.52832,2.44824A11.69766,11.69766,0,0,0,378.9662,49.24805Z"/>
          <path class="chainaudits-b0a8201f-5d90-4fd4-8cfb-588aaeb5600f" d="M405.46131,8.064a4.57221,4.57221,0,0,1,1.4043-3.34765,4.69349,4.69349,0,0,1,6.69629,0A4.57127,4.57127,0,0,1,414.96522,8.064a4.57159,4.57159,0,0,1-1.40332,3.34815,4.69464,4.69464,0,0,1-6.69629,0A4.57253,4.57253,0,0,1,405.46131,8.064ZM406.974,20.3042h6.47949V54.43213H406.974Z"/>
          <path class="chainaudits-f0f26b41-3331-41b1-ad1c-ac5694b1972d" d="M442.03651,25.91992H432.7494v15.48q0,1.44141.07128,2.84424a7.4481,7.4481,0,0,0,.54005,2.52,4.07561,4.07561,0,0,0,1.44043,1.7998,4.91381,4.91381,0,0,0,2.84375.68409,13.66715,13.66715,0,0,0,2.376-.21582,6.86227,6.86227,0,0,0,2.23243-.792V54.144a8.47113,8.47113,0,0,1-2.98829.89991,22.43924,22.43924,0,0,1-2.84375.252,13.0328,13.0328,0,0,1-5.79589-1.044,7.11414,7.11414,0,0,1-3.02442-2.6997,8.71462,8.71462,0,0,1-1.15234-3.708q-.18018-2.05226-.17969-4.14014V25.91992h-7.48828V20.3042h7.48828V10.728h6.48047V20.3042h9.28711Z"/>
          <path class="chainaudits-e34e2328-4007-4f09-9179-2a9aefa520b7" d="M468.5326,28.87207A9.96025,9.96025,0,0,0,465.68885,26.46a8.19719,8.19719,0,0,0-4.14062-.97168,7.88617,7.88617,0,0,0-3.9961.97168,3.09955,3.09955,0,0,0-1.6914,2.84424,3.24464,3.24464,0,0,0,.97168,2.44775,7.6598,7.6598,0,0,0,2.30371,1.51221,13.40649,13.40649,0,0,0,2.84473.86377q1.51172.28857,2.59179.50439a30.20106,30.20106,0,0,1,3.92383,1.22364,10.8888,10.8888,0,0,1,3.168,1.87207,8.13178,8.13178,0,0,1,2.08789,2.8081,9.67688,9.67688,0,0,1,.75586,4.03223A9.46053,9.46053,0,0,1,473.28456,49.5a10.32534,10.32534,0,0,1-3.168,3.34814,13.33719,13.33719,0,0,1-4.42774,1.87207,22.12473,22.12473,0,0,1-5.0039.57569A19.76552,19.76552,0,0,1,453.2328,54a13.39778,13.39778,0,0,1-5.72461-4.752l4.89648-4.03174a20.04536,20.04536,0,0,0,3.52832,2.80762,8.73753,8.73753,0,0,0,4.752,1.22412,12.56924,12.56924,0,0,0,2.4834-.252,7.66034,7.66034,0,0,0,2.23242-.792,4.88453,4.88453,0,0,0,1.584-1.36816,3.12751,3.12751,0,0,0,.61133-1.90772,3.29,3.29,0,0,0-.89941-2.376,6.54449,6.54449,0,0,0-2.16016-1.47608,15.74417,15.74417,0,0,0-2.66406-.86426q-1.40333-.32373-2.4834-.53955-2.09034-.50317-3.96094-1.15234a12.03112,12.03112,0,0,1-3.31152-1.728,7.96574,7.96574,0,0,1-2.30371-2.73584,8.798,8.798,0,0,1-.86426-4.104,9.294,9.294,0,0,1,1.11621-4.644,9.90191,9.90191,0,0,1,2.95215-3.27588,13.34026,13.34026,0,0,1,4.17578-1.94434,17.60135,17.60135,0,0,1,4.71582-.648,17.32656,17.32656,0,0,1,6.624,1.29639,10.49552,10.49552,0,0,1,5.04,4.31982Z"/>
        </g>
        <path class="chainaudits-adaee07e-aa8e-4fa7-9444-88a7839dad2a" d="M66.7006,54.24718l-11.97726.04741A1.35711,1.35711,0,0,1,53.10912,53.224L45.2556,33.8173a1.33379,1.33379,0,0,0-1.54053-1.10844l-18.6072-.01516,3.27635-8.67276a1.71892,1.71892,0,0,1,.64919-.96253,1.70882,1.70882,0,0,1,.84425-.14425l10.78954.007a16.94152,16.94152,0,0,0-4.095-8.55355c-4.18858-4.29613-11.49584-4.69755-16.578-1.50805s-7.87273,9.37207-7.74286,15.37074A17.8191,17.8191,0,0,0,18.84108,41.9626c4.17763,3.18321,10.25764,3.92563,14.81,1.30622l4.28734,10.51725c.34843.85474-10.75659,1.88825-11.72394,1.834a28.81288,28.81288,0,0,1-11.68866-3.18984C7.28024,48.64575,2.38659,41.371.65875,33.43981a28.12547,28.12547,0,0,1-.60106-7.81558A27.68119,27.68119,0,0,1,14.31878,3.28279,30.62822,30.62822,0,0,1,31.4577.18386c4.1595.39708,8.38763,1.58631,11.56429,4.3007,3.27974,2.80247,5.09946,6.90438,6.8153,10.86246Z"/>
      </g>
    </g>
  </g>
</svg>
