<?xml version="1.0" encoding="UTF-8" standalone="no" ?>
<!DOCTYPE svg PUBLIC "-//W3C//DTD SVG 1.1//EN" "http://www.w3.org/Graphics/SVG/1.1/DTD/svg11.dtd">
<svg xmlns="http://www.w3.org/2000/svg" xmlns:xlink="http://www.w3.org/1999/xlink" version="1.1" width="1080" height="1080" viewBox="0 0 1080 1080" xml:space="preserve">
<desc>Created with Fabric.js 5.2.4</desc>
<defs>
</defs>
<g transform="matrix(1 0 0 1 540 540)" id="5209a741-f1b0-4607-8b5c-3e2947dea46a"  >
<rect style="stroke: none; stroke-width: 1; stroke-dasharray: none; stroke-linecap: butt; stroke-dashoffset: 0; stroke-linejoin: miter; stroke-miterlimit: 4; fill: rgb(255,255,255); fill-rule: nonzero; opacity: 1; visibility: hidden;" vector-effect="non-scaling-stroke"  x="-540" y="-540" rx="0" ry="0" width="1080" height="1080" />
</g>
<g transform="matrix(1 0 0 1 540 540)" id="9d7c2a8a-5bbc-4599-a85b-97aef7f79a1d"  >
</g>
<g transform="matrix(1.4 0 0 1.4 540 540)"  >
<g style=""   >
		<g transform="matrix(1 0 0 1 195.07 0)" id="c"  >
<path style="stroke: none; stroke-width: 1; stroke-dasharray: none; stroke-linecap: butt; stroke-dashoffset: 0; stroke-linejoin: miter; stroke-miterlimit: 4; fill: rgb(0,0,0); fill-rule: nonzero; opacity: 1;" vector-effect="non-scaling-stroke"  transform=" translate(-581.53, -324.47)" d="M 772.92 440.32 C 771.05 447.99 767.8 454.84 761.41 459.86 C 755.0699999999999 464.84000000000003 747.88 466.88 739.8399999999999 466.87 C 693.3499999999999 466.78000000000003 646.8499999999999 466.83 600.3599999999999 466.83 C 599.1999999999999 466.83 598.0299999999999 466.95 596.8899999999999 466.81 C 593.1399999999999 466.35 592.0899999999999 467.98 592.0899999999999 471.65 C 592.1899999999999 520.8399999999999 592.16 570.03 592.16 619.22 C 592.16 636.5600000000001 579.86 648.9200000000001 562.53 648.9300000000001 C 532.01 648.95 501.47999999999996 648.95 470.96 648.9300000000001 C 453.99 648.9200000000001 441.32 636.45 441.29999999999995 619.48 C 441.22999999999996 570.29 441.30999999999995 521.1 441.19999999999993 471.91 C 441.19999999999993 468.11 442.4599999999999 467.13000000000005 446.0999999999999 467.18 C 458.3299999999999 467.36 470.5599999999999 467.41 482.7899999999999 467.17 C 499.1299999999999 466.85 511.0999999999999 457.78000000000003 515.8699999999999 442.43 C 518.1299999999999 435.15000000000003 517.1199999999999 428.06 513.5099999999999 421.52 C 485.27999999999986 370.37 456.9499999999999 319.27 428.65999999999985 268.15 C 416.2599999999999 245.73999999999998 403.89999999999986 223.30999999999997 391.40999999999985 200.95 C 389.72999999999985 197.94 389.6899999999998 195.58999999999997 391.3799999999999 192.45999999999998 C 422.6999999999999 134.48999999999998 453.8899999999999 76.43999999999998 485.08999999999986 18.409999999999968 C 491.59 6.27 501.93 0.08 515.47 0 C 529.08 -0.08 539.3100000000001 6.38 545.9300000000001 18.35 C 558.2700000000001 40.650000000000006 570.58 62.96 582.9100000000001 85.25 C 607.58 129.84 632.2700000000001 174.42000000000002 656.9200000000001 219.02 C 684.5600000000001 269.03000000000003 712.1700000000001 319.05 739.8000000000001 369.07000000000005 C 749.2 386.08000000000004 758.7 403.03000000000003 767.95 420.12000000000006 C 770.0600000000001 424.0300000000001 771.2900000000001 428.4200000000001 772.9200000000001 432.5900000000001 L 772.9200000000001 440.3200000000001 Z" stroke-linecap="round" />
</g>
		<g transform="matrix(1 0 0 1 -196.42 -0.07)" id="c"  >
<path style="stroke: none; stroke-width: 1; stroke-dasharray: none; stroke-linecap: butt; stroke-dashoffset: 0; stroke-linejoin: miter; stroke-miterlimit: 4; fill: rgb(0,0,0); fill-rule: nonzero; opacity: 1;" vector-effect="non-scaling-stroke"  transform=" translate(-190.04, -324.4)" d="M 183.34 546.18 C 183.34 521.4599999999999 183.34 496.73999999999995 183.34 472.00999999999993 C 183.34 466.73999999999995 183.32 466.7099999999999 177.93 466.7099999999999 C 129.5 466.7099999999999 81.08000000000001 466.6599999999999 32.650000000000006 466.7399999999999 C 21.090000000000003 466.7599999999999 11.830000000000005 462.4399999999999 5.330000000000005 452.8599999999999 C -1.4499999999999948 442.8499999999999 -1.6599999999999948 432.2599999999999 4.050000000000005 421.7999999999999 C 18.970000000000006 394.4599999999999 34.11000000000001 367.2499999999999 49.18000000000001 339.9899999999999 C 70.42 301.5899999999999 91.67000000000002 263.1899999999999 112.92000000000002 224.7899999999999 C 139.15 177.3799999999999 165.39000000000001 129.9799999999999 191.61 82.56999999999991 C 203.20000000000002 61.619999999999905 215.09 40.83999999999991 226.22000000000003 19.649999999999906 C 237.19000000000003 -1.2400000000000944 261.81000000000006 -5.620000000000093 278.33000000000004 7.189999999999905 C 282.07000000000005 10.089999999999906 285.37000000000006 14.139999999999905 287.6 18.339999999999904 C 304.03000000000003 49.2499999999999 320.12 80.3399999999999 336.35 111.3599999999999 C 350.49 138.3899999999999 364.61 165.4299999999999 378.88 192.3899999999999 C 380.59 195.6199999999999 380.46 198.0199999999999 378.67 201.2199999999999 C 356.31 241.3599999999999 334.12 281.5899999999999 311.89 321.7899999999999 C 294.2 353.7799999999999 277.4 386.2899999999999 258.53 417.56999999999994 C 245.22999999999996 439.61999999999995 260.95 466.98999999999995 287.39 467.25999999999993 C 299.62 467.38999999999993 311.84999999999997 467.43999999999994 324.08 467.22999999999996 C 327.96 467.16999999999996 329.13 468.34 329.12 472.27 C 329 521.0699999999999 329.07 569.87 329.02 618.68 C 329 636.55 316.66999999999996 648.8 298.85999999999996 648.8 C 270.4 648.8 241.92999999999995 648.8 213.46999999999997 648.8 C 195.55999999999997 648.8 183.31999999999996 636.62 183.30999999999997 618.79 C 183.30999999999997 594.5799999999999 183.30999999999997 570.37 183.30999999999997 546.17 Z" stroke-linecap="round" />
</g>
</g>
</g>
</svg>